<?xml version="1.0" encoding="utf-8"?>
<!-- Generator: Adobe Illustrator 19.2.1, SVG Export Plug-In . SVG Version: 6.00 Build 0)  -->
<svg version="1.1" id="layer" xmlns="http://www.w3.org/2000/svg" xmlns:xlink="http://www.w3.org/1999/xlink" x="0px" y="0px"
	 viewBox="0 0 652 652" style="enable-background:new 0 0 652 652;" xml:space="preserve">
<style type="text/css">
	.st0{fill:#EF4651;}
	.st1{fill:#010101;}
</style>
<path class="st0" d="M344.6,343.5c3.6,0,7.2-3,7.2-7.2c0-4.2-3-7.2-7.2-7.2c-3.6,0-7.2,3-7.2,7.2
	C337.4,340.5,340.4,343.5,344.6,343.5z M339.2,356.7H350v94h-10.8V356.7z M153.7,450.7c13.2,0,25.9-6,34.3-16.3v16.3h10.8v-94H188
	V373c-8.4-10.2-21.1-16.3-34.3-16.3c-24.7,0-45.2,21.1-45.2,46.4C108.5,429.6,129,450.7,153.7,450.7z M119.4,403.7
	c0-19.9,15.7-35.5,34.3-35.5s34.3,16.3,34.3,35.5v1.2c-0.6,19.3-15.7,34.3-34.3,34.3C135,439.8,119.4,423.6,119.4,403.7z
	 M318.7,403.7c0-25.9-20.5-46.4-45.2-46.4c-13.2,0-25.9,6-34.3,16.3v-16.3h-10.8V485h10.8v-50c8.4,10.2,21.1,16.3,34.3,16.3
	C298.3,450.7,318.7,429.6,318.7,403.7z M273.6,439.8c-18.7,0-33.7-15.1-34.3-34.3v-1.2c0-19.9,15.7-35.5,34.3-35.5
	c18.7,0,34.3,16.3,34.3,35.5S292.2,439.8,273.6,439.8z M524.7,356.7c-10.2,0-20.5,4.2-27.7,12v-12h-10.8v94H497v-55.4
	c0.6-15.1,12.6-27.1,27.7-27.1s27.1,12,27.1,27.1v55.4h10.8v-55.4C563.2,374.2,545.8,356.7,524.7,356.7z M620.5,439.8h-1.2
	c-1.2,0-3,0.6-5.4,0.6c-4.2,0-6.6-3-6.6-9.6V367h13.2v-10.8h-13.2v-31.3h-11.4v31.3h-13.2V367h13.2v64.4c0,7.2,1.2,11.4,4.2,14.5
	c2.4,3,6.6,4.2,10.8,4.2c3.6,0,6.6-0.6,9-1.2h0.6V439.8z M447.6,423.6c-6,10.2-16.9,16.3-28.9,16.3c-18.1,0-33.1-14.5-34.3-33.1
	h74.1c3,0,5.4-2.4,5.4-4.8v-0.6c-1.8-24.7-21.1-43.4-45.2-43.4c-25.3,0-45.8,21.1-45.8,47s20.5,46.4,45.8,46.4
	c15.1,0,29.5-7.8,37.9-21.1L447.6,423.6z M419.3,368.2c16.3,0,30.1,11.4,33.1,27.7H385C389.2,379.6,402.4,368.2,419.3,368.2z
	 M83.2,405.5c0,0-3-2.4-6-3.6c-3-1.2-7.2-3-16.9-4.8c-1.2-0.6-2.4-0.6-3.6-0.6c-6-1.8-10.8-3.6-14.5-6c-3.6-3-4.8-5.4-4.8-8.4
	c0-3.6,2.4-6.6,6-9.6c4.2-3,10.2-4.8,16.9-4.2c7.8,0.6,13.9,4.2,19.9,9l0.6,0.6l7.8-7.2c-1.2-1.2-1.2-1.2-3.6-3
	c-6-4.2-13.9-9-24.7-9c-9-0.6-16.9,1.2-23.5,5.4C30.2,368.8,26,375.4,26,382c0,5.4,1.2,10.2,6,15.1c6,6,16.3,9,24.7,10.8
	c7.8,1.2,14.5,4.2,18.1,7.2c4.2,3.6,6,6.6,6,10.8c0,3.6-3,7.8-7.2,10.2c-4.2,3-10.8,4.8-16.9,4.8c-8.4-0.6-17.5-4.2-26.5-10.8
	l-0.6-0.6l-7.8,7.2l0.6,0.6c10.2,9,21.7,13.9,33.7,14.5c9,0.6,16.9-1.8,23.5-6.6c7.2-4.8,11.4-11.4,11.4-18.7
	C93.5,417.6,89.3,410.3,83.2,405.5z"/>
<path class="st1" d="M486.8,260.4c-6.6,4.8-14.5,7.8-23.5,7.8c-20.5,0-36.7-16.3-36.7-36.1s16.9-36.1,36.7-36.1c9,0,16.9,3,23.5,7.8
	l7.8-7.8c-8.4-7.2-19.3-11.4-31.3-11.4c-26.5,0-48.2,21.1-48.2,47s21.7,47,48.2,47c12,0,22.9-4.2,31.3-11.4L486.8,260.4z
	 M112.8,232.1c0-25.9-20.5-46.4-45.2-46.4c-13.2,0-25.9,6-34.3,16.3v-16.3H22.4v127.7h10.8v-50c8.4,10.2,21.1,16.3,34.3,16.3
	C92.3,279,112.8,258,112.8,232.1z M67,268.2c-18.7,0-33.7-15.1-34.3-34.3v-1.2c0-19.9,15.7-35.5,34.3-35.5s34.3,16.3,34.3,35.5
	S86.3,268.2,67,268.2z M195.3,185.1v55.4c0,15.1-12,27.1-27.7,27.7c-15.1,0-27.1-12-27.1-27.7v-55.4h-10.8v55.4
	c0,21.1,16.9,38.5,37.9,38.5s38.5-17.5,38.5-38.5v-55.4H195.3z M273.6,185.1c-13.2,0-25.9,6-34.3,16.3v-44h-10.8V279h10.8v-16.3
	c8.4,10.2,21.1,16.3,34.3,16.3c24.7,0,45.2-21.1,45.2-46.4C318.7,206.2,298.3,185.1,273.6,185.1z M307.9,232.7
	c0,19.9-15.7,35.5-34.3,35.5c-18.7,0-34.3-16.3-34.3-35.5v-1.2c0.6-19.3,15.7-34.3,34.3-34.3C292.2,196.5,307.9,212.8,307.9,232.7z
	 M388,171.8c3.6,0,7.2-3,7.2-7.2c0-4.2-3-7.2-7.2-7.2c-3.6,0-7.2,3-7.2,7.2C380.8,168.8,383.8,171.8,388,171.8z M382.6,185.1h10.8
	v94h-10.8V185.1z M525.9,171.8c3.6,0,7.2-3,7.2-7.2c0-4.2-3-7.2-7.2-7.2c-3.6,0-7.2,3-7.2,7.2C518.7,168.8,521.7,171.8,525.9,171.8z
	 M520.5,185.1h10.8v94h-10.8V185.1z M613.2,233.9c0,0-3-2.4-6-3.6c-3-1.2-7.2-3-16.9-4.8c-1.2-0.6-2.4-0.6-3.6-0.6
	c-6-1.8-10.8-3.6-14.5-6c-3.6-3-4.8-5.4-4.8-8.4c0-3.6,2.4-6.6,6-9.6c4.2-3,10.2-4.8,16.9-4.2c7.8,0.6,13.9,4.2,19.9,9l0.6,0.6
	l7.8-7.2c-1.2-1.2-1.2-1.2-3.6-3c-6-4.2-13.9-9-24.7-9c-9-0.6-16.9,1.2-23.5,5.4c-6.6,4.8-10.8,11.4-10.8,18.1
	c0,5.4,1.2,10.2,6,15.1c6,6,16.3,9,24.7,10.8c7.8,1.2,14.5,4.2,18.1,7.2c4.2,3.6,6,6.6,6,10.8c0,3.6-3,7.8-7.2,10.2
	c-4.2,3-10.8,4.8-16.9,4.8c-8.4-0.6-17.5-4.2-26.5-10.8l-0.6-0.6l-7.8,7.2l0.6,0.6c10.2,9,21.7,13.9,33.7,14.5
	c9,0.6,16.9-1.8,23.5-6.6c7.2-4.8,11.4-11.4,11.4-18.7C623.5,245.9,619.9,238.7,613.2,233.9z M339.2,158H350V279h-10.8V158z"/>
</svg>
