<?xml version="1.0" standalone="no"?>
<!DOCTYPE svg PUBLIC "-//W3C//DTD SVG 20010904//EN"
 "http://www.w3.org/TR/2001/REC-SVG-20010904/DTD/svg10.dtd">
<svg version="1.0" xmlns="http://www.w3.org/2000/svg"
 width="225.000000pt" height="132.000000pt" viewBox="0 0 225.000000 132.000000"
 preserveAspectRatio="xMidYMid meet">

<g transform="translate(0.000000,132.000000) scale(0.100000,-0.100000)"
fill="#000000" stroke="none">
<path d="M295 924 c-5 -1 -27 -5 -48 -9 -20 -3 -53 -19 -72 -36 -98 -87 -79
-270 35 -330 42 -23 117 -25 165 -5 29 13 34 12 39 0 4 -10 17 -14 38 -12 l33
3 3 193 2 192 -40 0 c-23 0 -40 -5 -40 -11 0 -7 -9 -9 -22 -4 -49 14 -83 22
-93 19z m66 -94 c32 -18 52 -68 46 -119 -12 -105 -139 -139 -190 -51 -31 52
-14 143 30 169 23 14 89 14 114 1z"/>
<path d="M564 907 c-2 -7 -3 -94 -2 -192 l3 -180 40 0 40 0 5 138 c6 154 11
167 75 167 58 0 67 -22 66 -162 -1 -68 3 -129 8 -136 5 -8 22 -12 42 -10 l34
3 5 131 c4 111 8 135 24 153 23 25 77 28 100 5 22 -22 26 -43 29 -174 l2 -115
40 0 40 0 0 140 c0 116 -3 146 -18 173 -40 74 -155 98 -217 45 -18 -15 -35
-22 -38 -17 -27 40 -126 59 -172 34 -13 -7 -21 -7 -25 0 -9 15 -75 12 -81 -3z"/>
<path d="M1255 901 c-40 -24 -61 -49 -80 -94 -42 -100 6 -232 98 -266 40 -15
117 -13 149 3 24 13 29 13 36 0 6 -10 20 -14 43 -12 l34 3 3 193 2 192 -39 0
c-22 0 -41 -5 -43 -12 -4 -10 -10 -10 -32 0 -41 19 -136 15 -171 -7z m157 -81
c35 -27 52 -72 43 -116 -16 -89 -117 -126 -175 -64 -71 76 -28 200 70 200 22
0 48 -8 62 -20z"/>
<path d="M1686 896 c-58 -35 -86 -88 -86 -164 0 -159 125 -240 273 -177 27 11
22 -31 -8 -60 -34 -35 -102 -35 -143 0 -30 25 -95 35 -106 16 -8 -12 33 -70
67 -95 41 -30 183 -31 223 0 68 50 69 54 69 287 l0 212 -33 3 c-18 2 -39 -2
-47 -8 -10 -8 -19 -8 -34 -1 -37 20 -132 13 -175 -13z m167 -76 c52 -41 53
-132 2 -180 -27 -25 -86 -31 -122 -12 -31 17 -56 78 -49 121 12 78 109 118
169 71z"/>
<path d="M2057 914 c-9 -9 -9 -336 -1 -358 7 -17 59 -22 82 -8 9 7 12 51 10
188 l-3 179 -40 3 c-23 2 -44 0 -48 -4z"/>
</g>
</svg>
