<?xml version="1.0" encoding="UTF-8" standalone="no"?>
<!-- Created with Inkscape (http://www.inkscape.org/) -->

<svg
   xmlns:dc="http://purl.org/dc/elements/1.1/"
   xmlns:cc="http://creativecommons.org/ns#"
   xmlns:rdf="http://www.w3.org/1999/02/22-rdf-syntax-ns#"
   xmlns:svg="http://www.w3.org/2000/svg"
   xmlns="http://www.w3.org/2000/svg"
   version="1.1"
   width="97.089996"
   height="72.32"
   id="svg2"
   xml:space="preserve"><metadata
     id="metadata8"><rdf:RDF><cc:Work
         rdf:about=""><dc:format>image/svg+xml</dc:format><dc:type
           rdf:resource="http://purl.org/dc/dcmitype/StillImage" /><dc:title></dc:title></cc:Work></rdf:RDF></metadata><defs
     id="defs6"><clipPath
       id="clipPath16"><path
         d="m 604.488,-8.504 -603.779,0 0,715.87 603.779,0 0,-715.87 M 43.03,148.36 l 0,-86.4 336.48,0 0,86.4 -336.48,0"
         id="path18" /></clipPath><clipPath
       id="clipPath24"><path
         d="m 0.709,707.366 594.567,0 0,-707.366 -594.567,0 0,707.366 z"
         id="path26" /></clipPath><clipPath
       id="clipPath38"><path
         d="m 379.51,61.96 -336.48,0 0,86.4 336.48,0 0,-86.4"
         id="path40" /></clipPath><clipPath
       id="clipPath64"><path
         d="m 0.06,773.858 595.216,0 L 595.276,0 0.06,0 l 0,773.858 z"
         id="path66" /></clipPath><clipPath
       id="clipPath142"><path
         d="m 43.147,753.279 75.521,0 0,-55.944 -75.521,0 0,55.944 z"
         id="path144" /></clipPath></defs><g
     transform="matrix(1.25,0,0,-1.25,0,72.319923)"
     id="g10"><g
       transform="translate(75.114386,35.439924)"
       id="g130"><path
         d="m 0,0 c 0,-11.248 -16.356,-20.376 -36.526,-20.376 -20.17,0 -36.526,9.128 -36.526,20.376 0,11.259 16.356,20.377 36.526,20.377 C -16.356,20.377 0,11.259 0,0"
         id="path132"
         style="fill:#143d8d;fill-opacity:1;fill-rule:evenodd;stroke:none" /></g><g
       transform="translate(38.588386,14.232924)"
       id="g134"><path
         d="M 0,0 0,1.661 1.857,1.685 C 12.86,1.687 33.94,6.908 35.655,20.233 l 0.042,0.973 1.658,0 -0.054,-1.122 C 35.664,6.28 15.327,0.497 3.779,0.109 L 1.903,0.03 0,0 z m -37.355,21.206 1.658,0 0.042,-0.973 C -33.943,6.91 -12.857,1.685 -1.857,1.685 L 0,1.661 0,0 -1.902,0.03 C -13.703,0.098 -34.3,5.385 -37.15,18.978 l -0.15,1.106 -0.055,1.122 z M 0,42.413 0,40.752 -1.857,40.729 C -12.861,40.725 -33.945,35.513 -35.655,22.181 l -0.042,-0.975 -1.658,0 0.055,1.124 c 1.632,13.809 21.971,19.586 33.521,19.975 L -1.902,42.384 0,42.413 z m 37.355,-21.207 -1.658,0 -0.042,0.975 C 33.945,35.513 12.862,40.725 1.857,40.729 L 0,40.752 0,42.413 1.903,42.384 c 11.8,-0.069 32.404,-5.352 35.247,-18.947 l 0.151,-1.107"
         id="path136"
         style="fill:#ffffff;fill-opacity:1;fill-rule:evenodd;stroke:none" /></g><g
       transform="translate(-42.520614,-696.51508)"
       id="g138"><g
         clip-path="url(#clipPath142)"
         id="g140"><g
           transform="translate(118.668,731.923)"
           id="g146"><path
             d="M 0,0 -0.256,0 -0.305,1.082 C -2.048,15.353 -23.716,21.054 -35.579,21.08 l -1.919,0.027 0,0.249 1.927,-0.028 C -23.696,21.251 -3.046,15.865 -0.195,2.192 L -0.049,1.103 0,0 z m -37.498,-21.355 0,0.248 1.919,0.028 c 11.863,0.024 33.53,5.728 35.274,19.997 L -0.256,0 0,0 -0.049,-1.103 C -1.686,-14.95 -22.07,-20.847 -33.67,-21.245 l -1.901,-0.082 -1.927,-0.028 z M -74.996,0 l 0.257,0 0.048,-1.082 c 1.743,-14.269 23.412,-19.973 35.274,-19.997 l 1.919,-0.028 0,-0.248 -1.926,0.028 c -11.875,0.075 -32.527,5.465 -35.377,19.136 L -74.947,-1.103 -74.996,0 z m 37.498,21.356 0,-0.249 -1.919,-0.027 C -51.279,21.055 -72.949,15.353 -74.691,1.082 L -74.739,0 l -0.257,0 0.049,1.103 c 1.637,13.85 22.022,19.744 33.622,20.143 l 1.901,0.082"
             id="path148"
             style="fill:#143d8d;fill-opacity:1;fill-rule:evenodd;stroke:none" /></g></g></g><g
       transform="translate(50.816386,34.978924)"
       id="g150"><path
         d="m 0,0 c 1.4,0.313 2.054,1.218 2.054,2.076 0,1.568 -2.073,2.372 -4.469,2.372 l -8.043,0 0,-8.305 4.193,0 0,6.32 0.027,0.01 1.98,0 c 1.613,0 2.092,-0.305 2.092,-0.83 0,-0.739 -1.078,-0.822 -1.861,-0.822 l -0.876,0 c -0.653,0 -1.178,-0.397 -1.178,-0.885 0,-0.49 0.515,-0.887 1.17,-0.896 l 0.921,0 c 1.667,0 1.778,-0.822 1.899,-1.615 0.054,-0.433 0.138,-0.858 0.34,-1.282 l 4.23,0 C 2.091,-3.47 2.073,-2.482 2.018,-2.077 1.861,-1.043 1.152,-0.268 0,-0.01 m -27.459,-0.59 -3.52,0 c -0.387,0 -0.728,-0.222 -0.894,-0.545 -0.322,-0.498 -0.902,-0.839 -1.962,-0.839 -1.981,0 -2.608,1.162 -2.608,2.279 0,1.117 0.627,2.279 2.608,2.279 1.133,0 1.686,-0.378 1.962,-0.738 l 0.01,0 c 0.175,-0.286 0.488,-0.48 0.847,-0.48 l 3.492,0 c -0.359,2.086 -2.432,3.277 -6.192,3.295 -4.229,0 -6.956,-1.735 -6.956,-4.356 0,-2.455 2.515,-4.346 6.956,-4.346 4.009,0 6.257,1.781 6.257,3.451 m 11.988,-2.28 -3.962,6.599 c -0.221,0.415 -0.673,0.71 -1.171,0.72 l -2.681,0 c -0.507,-0.01 -0.94,-0.305 -1.161,-0.72 l -4.607,-7.576 4.192,0 2.34,4.457 c 0.102,0.221 0.323,0.377 0.581,0.377 0.258,0 0.479,-0.156 0.571,-0.377 l 2.139,-4.457 7.979,0 0,8.305 -4.22,0 0,-7.328 z m 30.315,0.425 0,6.903 -3.99,0 0,-4.485 -3.639,4.051 -0.01,0 C 6.966,4.272 6.634,4.448 6.247,4.448 l -2.396,0 C 3.114,4.448 2.524,3.867 2.506,3.137 l -0.01,0 0,-6.994 4,0 0,4.567 0.036,-0.027 3.76,-4.06 0.028,-0.038 c 0.249,-0.267 0.627,-0.442 1.023,-0.442 l 2.156,0 0,0.009 c 0.746,0 1.345,0.563 1.345,1.31 l 0,0.083"
         id="path152"
         style="fill:#ffffff;fill-opacity:1;fill-rule:evenodd;stroke:none" /></g><g
       transform="translate(1.9133865,6.1609241)"
       id="g154"><path
         d="M 0,0 1.328,-3.375 2.659,0.059 4.002,-3.356 5.293,0 6.148,0 4.094,-5.304 l -0.58,0 -1.071,2.729 -1.053,-2.729 -0.583,0 L -1.287,0"
         id="path156"
         style="fill:#231f20;fill-opacity:1;fill-rule:nonzero;stroke:none" /></g><g
       transform="translate(12.602386,6.1609241)"
       id="g158"><path
         d="m 0,0 0,-0.444 -2.619,0 0,-1.724 2.175,0 0,-0.447 -2.175,0 0,-2.073 2.619,0 0,-0.535 -3.899,0 0,5.223"
         id="path160"
         style="fill:#231f20;fill-opacity:1;fill-rule:nonzero;stroke:none" /></g><g
       transform="translate(19.524386,6.1609241)"
       id="g162"><path
         d="m 0,0 0,-0.444 -2.469,0 0,-1.724 2.176,0 0,-0.447 -2.176,0 0,-2.608 -1.28,0 0,5.223"
         id="path164"
         style="fill:#231f20;fill-opacity:1;fill-rule:nonzero;stroke:none" /></g><g
       transform="translate(20.588386,6.1609241)"
       id="g166"><path
         d="m 0,0 1.284,0 0,-3.356 c 0,-0.203 0.031,-0.393 0.093,-0.571 0.063,-0.177 0.152,-0.332 0.268,-0.464 0.116,-0.132 0.257,-0.236 0.424,-0.313 0.166,-0.077 0.352,-0.116 0.557,-0.116 0.206,0 0.391,0.039 0.556,0.116 0.165,0.077 0.306,0.181 0.422,0.313 0.116,0.132 0.205,0.287 0.268,0.464 0.062,0.178 0.093,0.368 0.093,0.571 l 0,3.356 0.807,0 0,-3.356 C 4.772,-3.625 4.726,-3.88 4.635,-4.121 4.543,-4.362 4.4,-4.573 4.205,-4.754 4.011,-4.935 3.76,-5.078 3.453,-5.183 3.147,-5.288 2.779,-5.341 2.351,-5.341 1.967,-5.341 1.629,-5.288 1.337,-5.183 1.045,-5.078 0.8,-4.934 0.602,-4.752 0.404,-4.57 0.254,-4.358 0.152,-4.115 0.051,-3.873 0,-3.617 0,-3.345"
         id="path168"
         style="fill:#231f20;fill-opacity:1;fill-rule:nonzero;stroke:none" /></g><g
       transform="translate(30.543386,6.1609241)"
       id="g170"><path
         d="m 0,0 0,-0.444 -2.619,0 0,-1.724 2.175,0 0,-0.447 -2.175,0 0,-2.073 2.619,0 0,-0.535 -3.899,0 0,5.223"
         id="path172"
         style="fill:#231f20;fill-opacity:1;fill-rule:nonzero;stroke:none" /></g><g
       transform="translate(31.607386,6.1609241)"
       id="g174"><path
         d="m 0,0 1.28,0 0,-4.688 2.667,0 0,-0.535 -3.947,0"
         id="path176"
         style="fill:#231f20;fill-opacity:1;fill-rule:nonzero;stroke:none" /></g><g
       transform="translate(39.288386,2.8519241)"
       id="g178"><path
         d="M 0,0 1.574,0 0.8,1.687 0,0 z m 1.306,3.422 2.446,-5.337 -1.309,0 -0.653,1.427 -2.029,0 -0.685,-1.427 -0.873,0 2.549,5.337"
         id="path180"
         style="fill:#231f20;fill-opacity:1;fill-rule:nonzero;stroke:none" /></g><g
       transform="translate(43.686386,6.1609241)"
       id="g182"><path
         d="M 0,0 1.247,0 3.052,-3.569 4.834,0 l 1.222,0 0,-5.223 -1.28,0 0,3.404 -1.706,-3.404 -0.495,0 -1.765,3.444 0,-3.444 -0.81,0"
         id="path184"
         style="fill:#231f20;fill-opacity:1;fill-rule:nonzero;stroke:none" /></g><g
       transform="translate(52.184386,2.8519241)"
       id="g186"><path
         d="M 0,0 1.574,0 0.8,1.687 0,0 z m 1.306,3.422 2.447,-5.337 -1.31,0 -0.653,1.427 -2.028,0 -0.686,-1.427 -0.873,0 2.549,5.337"
         id="path188"
         style="fill:#231f20;fill-opacity:1;fill-rule:nonzero;stroke:none" /></g><g
       transform="translate(61.329386,6.1609241)"
       id="g190"><path
         d="m 0,0 -3.624,-4.688 3.43,0 0,-0.535 -5.11,0 0,0.242 3.477,4.493 -3.228,0 0,0.488"
         id="path192"
         style="fill:#231f20;fill-opacity:1;fill-rule:nonzero;stroke:none" /></g><path
       d="m 62.037386,0.93692406 1.28,0 0,5.22300004 -1.28,0 0,-5.22300004 z"
       id="path194"
       style="fill:#231f20;fill-opacity:1;fill-rule:nonzero;stroke:none" /><g
       transform="translate(64.656386,6.1609241)"
       id="g196"><path
         d="m 0,0 0.818,0 2.978,-3.323 0,3.323 0.804,0 0,-5.304 -0.554,0 -3.236,3.668 0,-3.587 -0.81,0"
         id="path198"
         style="fill:#231f20;fill-opacity:1;fill-rule:nonzero;stroke:none" /></g><g
       transform="translate(73.664386,3.4869241)"
       id="g200"><path
         d="m 0,0 2.171,0 0,-2.014 C 2.003,-2.102 1.835,-2.184 1.669,-2.26 1.503,-2.336 1.324,-2.401 1.133,-2.456 0.943,-2.511 0.735,-2.554 0.512,-2.584 0.288,-2.615 0.035,-2.63 -0.246,-2.63 c -0.45,0 -0.864,0.063 -1.243,0.189 -0.379,0.126 -0.706,0.304 -0.982,0.534 -0.275,0.229 -0.489,0.506 -0.643,0.829 -0.154,0.322 -0.231,0.682 -0.231,1.078 0,0.276 0.035,0.538 0.104,0.785 0.07,0.247 0.169,0.474 0.297,0.682 0.129,0.208 0.285,0.394 0.47,0.559 0.184,0.166 0.391,0.306 0.62,0.42 0.228,0.116 0.477,0.203 0.746,0.265 0.269,0.061 0.554,0.091 0.855,0.091 0.266,0 0.522,-0.035 0.767,-0.106 C 0.758,2.625 0.985,2.53 1.194,2.412 1.403,2.293 1.591,2.157 1.757,2.004 1.923,1.852 2.061,1.695 2.171,1.533 L 1.643,1.049 C 1.533,1.205 1.418,1.351 1.296,1.486 1.176,1.62 1.047,1.737 0.912,1.836 0.776,1.935 0.63,2.012 0.475,2.069 0.32,2.125 0.153,2.153 -0.026,2.153 -0.297,2.153 -0.549,2.105 -0.781,2.008 -1.014,1.912 -1.214,1.771 -1.383,1.586 -1.552,1.402 -1.684,1.176 -1.781,0.91 -1.877,0.643 -1.926,0.34 -1.926,0 c 0,-0.338 0.052,-0.636 0.154,-0.897 0.103,-0.26 0.242,-0.479 0.418,-0.656 0.176,-0.178 0.384,-0.312 0.622,-0.404 0.239,-0.092 0.493,-0.137 0.765,-0.137 0.161,0 0.314,0.021 0.459,0.064 0.144,0.042 0.276,0.106 0.396,0.192 l 0,1.39 -0.888,0"
         id="path202"
         style="fill:#231f20;fill-opacity:1;fill-rule:nonzero;stroke:none" /></g></g></svg>