<svg width="89" height="21" viewBox="0 0 89 21" fill="none" xmlns="http://www.w3.org/2000/svg">
<g clip-path="url(#clip0_913_745)">
<path d="M5.37 12.898C5.37 11.674 6.354 10.68 7.558 10.685C8.783 10.691 9.744 11.683 9.743 12.939C9.743 14.119 8.746 15.109 7.56 15.106C7.27099 15.1056 6.98492 15.0481 6.71821 14.9368C6.45151 14.8255 6.20944 14.6625 6.00593 14.4573C5.80241 14.2522 5.64145 14.0088 5.53232 13.7412C5.42318 13.4735 5.36802 13.187 5.37 12.898ZM12.128 2.32602L11.446 2.03902L10.256 1.54202C10.05 1.45602 10 1.33402 10.084 1.12002C10.169 0.903016 10.254 0.686016 10.342 0.470016C10.438 0.231016 10.537 0.187016 10.767 0.282016C11.275 0.494016 11.782 0.709016 12.29 0.921016L16.686 2.75802L19.723 4.03002C19.953 4.12602 19.995 4.23002 19.901 4.47402C19.814 4.70302 19.723 4.93102 19.632 5.15802C19.565 5.32502 19.437 5.38202 19.275 5.31502C19.083 5.23602 18.892 5.15502 18.701 5.07502C18.657 5.05602 18.613 5.04002 18.541 5.01302C18.584 5.15302 18.617 5.26502 18.654 5.37602L19.242 7.17202C19.307 7.36902 19.28 7.42802 19.099 7.49502L18.739 7.62902C18.572 7.69002 18.516 7.66402 18.459 7.48902C18.155 6.56202 17.851 5.63502 17.552 4.70702C17.52 4.61102 17.474 4.55702 17.384 4.52202C17.197 4.45202 17.014 4.37202 16.831 4.28902C16.738 4.24602 16.696 4.26802 16.656 4.36902C16.355 5.13402 16.046 5.89602 15.741 6.65902C15.725 6.69902 15.707 6.73702 15.684 6.79202C15.3852 6.45368 15.0483 6.15101 14.68 5.89002C14.673 5.94002 14.665 5.97002 14.664 5.99902C14.662 6.05902 14.664 6.11902 14.664 6.17902C14.66 8.17902 14.657 10.181 14.651 12.182C14.649 12.657 14.657 13.133 14.622 13.606C14.55 14.7105 14.2279 15.7842 13.68 16.746C12.648 18.544 11.138 19.632 9.22999 20.114C8.3715 20.3345 7.47854 20.3875 6.6 20.27C4.824 20.031 3.324 19.209 2.116 17.797C1.196 16.723 0.621996 15.463 0.379996 14.034C0.236333 13.1979 0.230928 12.3439 0.363996 11.506C0.711996 9.33302 1.75 7.63002 3.451 6.39102C4.41351 5.68806 5.5454 5.25325 6.731 5.13102C7.47297 5.05135 8.22293 5.09187 8.95199 5.25102C9.00599 5.26302 9.03899 5.28102 9.03899 5.35002L9.03699 8.05802C9.03699 8.06902 9.031 8.08002 9.029 8.08602C8.781 8.02302 8.53699 7.94602 8.28899 7.90102C7.00099 7.66202 5.816 7.94302 4.757 8.75602C4.25455 9.13268 3.8328 9.60636 3.51675 10.149C3.20069 10.6916 2.99675 11.2921 2.917 11.915C2.654 13.77 3.224 15.314 4.575 16.515C5.257 17.119 6.055 17.455 6.933 17.568C7.849 17.688 8.703 17.475 9.503 16.996C10.393 16.463 11.11 15.739 11.595 14.77C11.831 14.298 11.957 13.797 11.954 13.255C11.946 11.881 11.95 10.507 11.952 9.13202C11.952 7.91802 11.957 6.70402 11.956 5.48902C11.956 5.37902 11.986 5.34902 12.089 5.35002C12.575 5.35602 13.062 5.35202 13.549 5.35302H13.679C13.579 5.23402 12.937 5.00702 12.436 4.93802C12.008 4.87802 11.575 4.85802 11.13 4.81902L12.128 2.32602ZM56.552 17.968C58.357 18.257 60.028 15.946 60.066 14.207C60.114 12.047 58.287 10.154 56.563 10.164C54.717 10.174 53.159 12.13 53.113 14.004C53.061 16.098 54.867 18.237 56.553 17.968H56.552ZM52.018 5.44502H53.126V10.55C53.366 10.37 53.516 10.276 53.647 10.157C56.288 7.75102 60.104 9.15202 60.985 12.852C61.665 15.705 59.851 18.672 57.266 19.152C54.541 19.658 52.014 17.028 52.018 13.941C52.02 11.343 52.018 8.74502 52.018 6.14702V5.44502ZM25.91 17.961C27.918 17.961 29.27 16.428 29.387 14.31C29.517 11.966 27.586 10.26 26.045 10.336C23.941 10.439 22.599 11.871 22.476 14.076C22.359 16.182 24.272 18.229 25.91 17.961ZM29.363 10.828V5.85002H30.506V6.59002C30.506 8.94602 30.47 11.302 30.515 13.657C30.572 16.657 28.839 18.897 26.226 19.193C24.099 19.433 21.916 17.725 21.483 15.091C20.977 12.021 23.012 9.33502 25.695 9.12402C26.835 9.03402 27.93 9.42802 28.831 10.293C28.973 10.429 29.109 10.572 29.363 10.828ZM36.553 17.945C38.513 17.945 39.887 16.37 39.999 14.27C40.121 12.006 38.225 10.3 36.605 10.268C34.625 10.23 33.047 12.28 33.033 14.098C33.018 15.948 34.656 18.212 36.553 17.945ZM36.528 19.215C34.007 19.085 31.988 17.115 31.974 14.167C31.961 11.344 33.876 9.08702 36.484 9.09002C39.22 9.09502 41.081 11.308 41.084 14.141C41.088 17.021 39.102 19.043 36.528 19.215ZM49.49 9.09002H50.494C50.494 11.344 50.672 13.584 50.444 15.77C50.216 17.94 48.606 19.23 46.709 19.215C44.652 19.198 43.151 17.668 42.993 15.658C42.824 13.504 42.955 11.32 42.955 9.10102H43.967V9.76702C43.967 11.541 44.017 13.317 43.95 15.087C43.9 16.416 45.29 18.014 46.716 18.02C48.193 18.026 49.545 16.392 49.506 15.116C49.445 13.131 49.49 11.143 49.49 9.09002ZM83.276 9.09002H84.396C84.416 9.25402 84.455 9.41202 84.452 9.57002C84.417 11.55 84.468 13.538 84.314 15.507C84.144 17.701 82.45 19.244 80.371 19.215C78.149 19.183 76.609 17.502 76.496 15.507C76.376 13.397 76.469 11.273 76.469 9.11302H77.503C77.513 9.33602 77.53 9.56702 77.53 9.79702C77.533 11.567 77.582 13.34 77.515 15.107C77.465 16.404 78.892 18.02 80.405 18.02C81.915 18.02 83.336 16.405 83.293 15.107C83.227 13.127 83.276 11.144 83.276 9.09002ZM74.971 18.81H73.805V13.249C73.805 11.857 73.092 10.769 71.845 10.374C69.678 9.68502 68.032 11.558 68.11 13.226C68.195 15.067 68.13 16.916 68.13 18.801H66.964C66.964 18.135 66.952 17.465 66.967 16.795C66.997 15.396 66.98 13.992 67.097 12.601C67.1697 11.742 67.5304 10.9326 68.1207 10.3043C68.711 9.67589 69.4962 9.26529 70.349 9.13902C72.428 8.83702 74.147 9.95502 74.731 12.041C74.884 12.588 74.95 13.178 74.961 13.75C74.99 15.41 74.971 17.072 74.971 18.81ZM65.866 8.87002V10.172H63.763V15.787C63.763 17.469 64.268 18.064 65.832 18.164V19.207C63.774 19.326 62.594 18.132 62.59 15.894C62.583 12.431 62.588 8.96802 62.588 5.44502H63.74V8.87002H65.866ZM89.19 18.088V19.215C88.621 19.094 88.074 19.045 87.57 18.856C86.416 18.424 85.951 17.376 85.936 16.159C85.889 12.604 85.919 9.04902 85.919 5.44502H87.064V8.87002H89.184V10.162H87.1C87.1 12.318 87.06 14.393 87.118 16.466C87.144 17.447 87.887 17.969 89.19 18.088Z" fill="#EB532C"/>
</g>
<defs>
<clipPath id="clip0_913_745">
<rect width="89" height="21" fill="white"/>
</clipPath>
</defs>
</svg>
